<?xml version="1.0" encoding="utf-8"?>
<!-- Generator: Adobe Illustrator 15.0.2, SVG Export Plug-In  -->
<!DOCTYPE svg PUBLIC "-//W3C//DTD SVG 1.1//EN" "http://www.w3.org/Graphics/SVG/1.1/DTD/svg11.dtd" [
	<!ENTITY ns_flows "http://ns.adobe.com/Flows/1.0/">
]>
<svg version="1.1"
	 xmlns="http://www.w3.org/2000/svg" xmlns:xlink="http://www.w3.org/1999/xlink" xmlns:a="http://ns.adobe.com/AdobeSVGViewerExtensions/3.0/"
	 x="0px" y="0px" width="587px" height="191px" viewBox="0.069 -0.472 587 191" enable-background="new 0.069 -0.472 587 191"
	 xml:space="preserve">
<defs>
</defs>
<path fill="#007BC3" d="M247.827,118.799c1.652,0,3.248-0.123,4.788-0.371c1.539-0.248,2.761-0.504,3.661-0.771v7.25
	c-1.013,0.496-2.506,0.902-4.478,1.227c-1.971,0.324-3.746,0.486-5.323,0.486c-11.941,0-17.913-6.375-17.913-19.123V70.278h-8.844
	v-0.785l8.853-6.795l0.41-14.283l8.932,1.57v12.928h17.913v7.365h-17.913v36.818c0,3.768,0.882,6.66,2.647,8.678
	S244.748,118.799,247.827,118.799z"/>
<path fill="#007BC3" d="M287.882,126.619c-9.125,0-16.327-2.816-21.603-8.449c-5.275-5.631-7.914-13.451-7.914-23.461
	c0-10.084,2.45-18.095,7.351-24.033c4.9-5.937,11.482-8.904,19.743-8.904c7.735,0,13.856,2.578,18.362,7.734
	c4.507,5.158,6.76,11.959,6.76,20.408v5.994h-42.527c0.187,7.346,2.018,12.92,5.492,16.725c3.473,3.807,8.365,5.709,14.673,5.709
	c6.646,0,13.219-1.408,19.715-4.225v8.449c-3.305,1.445-6.431,2.482-9.378,3.111C295.608,126.305,292.051,126.619,287.882,126.619z
	 M285.347,69.706c-4.957,0-8.909,1.638-11.856,4.91c-2.949,3.273-4.686,7.802-5.21,13.586h32.275c0-5.974-1.314-10.551-3.942-13.729
	C293.984,71.295,290.229,69.706,285.347,69.706z"/>
<path fill="#007BC3" d="M327.91,125.477h-9.351V36.655h9.351V125.477z"/>
<path fill="#007BC3" d="M364.055,126.619c-8.938,0-15.855-2.787-20.756-8.363c-4.9-5.574-7.352-13.461-7.352-23.661
	c0-10.466,2.487-18.552,7.464-24.261c4.976-5.709,12.063-8.563,21.265-8.563c2.967,0,5.934,0.324,8.899,0.97
	c2.966,0.647,5.296,1.409,6.985,2.284l-2.873,8.049c-2.065-0.837-4.319-1.532-6.76-2.084c-2.441-0.551-4.6-0.828-6.479-0.828
	c-12.542,0-18.813,8.106-18.813,24.318c0,7.687,1.529,13.585,4.59,17.697c3.061,4.109,7.596,6.164,13.604,6.164
	c5.145,0,10.422-1.123,15.828-3.369v8.393C375.527,125.535,370.326,126.619,364.055,126.619z"/>
<path fill="#007BC3" d="M440.017,94.139c0,10.199-2.534,18.162-7.604,23.888c-5.07,5.729-12.073,8.592-21.011,8.592
	c-5.521,0-10.421-1.313-14.702-3.939c-4.28-2.625-7.585-6.393-9.913-11.303c-2.329-4.908-3.492-10.654-3.492-17.238
	c0-10.199,2.516-18.145,7.548-23.834c5.032-5.688,12.016-8.533,20.954-8.533c8.637,0,15.499,2.911,20.588,8.733
	C437.472,76.329,440.017,84.206,440.017,94.139z M392.981,94.139c0,7.99,1.578,14.08,4.732,18.265
	c3.154,4.188,7.792,6.279,13.913,6.279c6.12,0,10.769-2.082,13.941-6.25s4.761-10.266,4.761-18.294
	c0-7.955-1.588-13.995-4.761-18.125c-3.173-4.129-7.857-6.193-14.054-6.193c-6.122,0-10.741,2.036-13.856,6.107
	C394.54,80,392.981,86.071,392.981,94.139z"/>
<path fill="#007BC3" d="M525.404,125.477V84.776c0-4.984-1.051-8.724-3.153-11.217c-2.104-2.492-5.371-3.738-9.802-3.738
	c-5.821,0-10.121,1.693-12.899,5.08c-2.779,3.389-4.168,8.601-4.168,15.641v34.935h-9.351V84.776c0-4.984-1.052-8.724-3.154-11.217
	c-2.104-2.492-5.389-3.738-9.858-3.738c-5.857,0-10.148,1.779-12.871,5.337c-2.723,3.56-4.083,9.39-4.083,17.497v32.822h-9.352
	V62.913h7.605l1.52,8.563h0.452c1.764-3.044,4.253-5.423,7.463-7.136c3.212-1.713,6.807-2.568,10.788-2.568
	c9.649,0,15.959,3.539,18.926,10.617h0.45c1.84-3.271,4.507-5.859,7.999-7.764c3.492-1.902,7.473-2.854,11.941-2.854
	c6.985,0,12.214,1.817,15.688,5.451c3.473,3.635,5.211,9.447,5.211,17.439v40.814H525.404z"/>
<g>
	<path fill-rule="evenodd" clip-rule="evenodd" fill="#007BC3" d="M199.378,58.494l-60.361,0.249L119.603,0l-18.42,57.499
		l-60.858,0.373c21.284,9.537,64.094,28.925,64.094,28.925L81.892,70.596h28.5l8.837-26.878c0,0,5.922,17.997,8.96,26.99
		l28.002-0.195l-23.148,17.267l8.712,26.366c0,0-15.441-11.119-23.149-16.687L0,190.422l118.482-74.178l50.156,36.091
		c0,0-14.339-42.856-19.042-57.125L199.378,58.494z"/>
</g>
<g>
	<path fill-rule="evenodd" clip-rule="evenodd" fill="#FF4400" d="M107.655,96.951L37.337,65.837c0,0,34.427,20.665,51.525,31.114
		L65.589,129.06L107.655,96.951z"/>
</g>
</svg>
