<?xml version="1.0" encoding="utf-8"?>
<!-- Generator: Adobe Illustrator 15.0.2, SVG Export Plug-In  -->
<!DOCTYPE svg PUBLIC "-//W3C//DTD SVG 1.1//EN" "http://www.w3.org/Graphics/SVG/1.1/DTD/svg11.dtd" [
	<!ENTITY ns_flows "http://ns.adobe.com/Flows/1.0/">
]>
<svg version="1.1"
	 xmlns="http://www.w3.org/2000/svg" xmlns:xlink="http://www.w3.org/1999/xlink" xmlns:a="http://ns.adobe.com/AdobeSVGViewerExtensions/3.0/"
	 x="0px" y="0px" width="212px" height="201px" viewBox="-6.291 -5.336 212 201" enable-background="new -6.291 -5.336 212 201"
	 xml:space="preserve">
<defs>
</defs>
<g>
	<path fill-rule="evenodd" clip-rule="evenodd" fill="#1678D4" d="M200.496,58.822l-60.699,0.25L120.273,0L101.75,57.821
		l-61.199,0.375c21.404,9.59,64.453,28.923,64.453,28.923L82.351,70.664h28.66l8.887-26.865c0,0,5.956,18.18,9.01,27.224
		l28.16-0.155L133.79,88.25l8.761,26.523c0,0-15.528-11.176-23.279-16.774L0,191.488l119.147-74.593l50.437,36.293
		c0,0-14.419-43.096-19.148-57.444L200.496,58.822z"/>
</g>
<g>
	<path fill-rule="evenodd" clip-rule="evenodd" fill="#FF4400" d="M108.258,97.495L37.546,66.206c0,0,34.62,20.781,51.814,31.289
		l-23.404,32.289L108.258,97.495z"/>
</g>
</svg>
