<?xml version="1.0" encoding="utf-8"?>
<!-- Generator: Adobe Illustrator 15.0.2, SVG Export Plug-In  -->
<!DOCTYPE svg PUBLIC "-//W3C//DTD SVG 1.1//EN" "http://www.w3.org/Graphics/SVG/1.1/DTD/svg11.dtd" [
	<!ENTITY ns_flows "http://ns.adobe.com/Flows/1.0/">
]>
<svg version="1.1"
	 xmlns="http://www.w3.org/2000/svg" xmlns:xlink="http://www.w3.org/1999/xlink" xmlns:a="http://ns.adobe.com/AdobeSVGViewerExtensions/3.0/"
	 x="0px" y="0px" width="556px" height="201px" viewBox="-6.291 -5.336 556 201" enable-background="new -6.291 -5.336 556 201"
	 xml:space="preserve">
<defs>
</defs>
<g>
	<path fill-rule="evenodd" clip-rule="evenodd" fill="#FFFFFF" d="M200.496,58.822l-60.699,0.25L120.273,0L101.75,57.821
		l-61.199,0.375c21.404,9.59,64.453,28.923,64.453,28.923L82.351,70.664h28.66l8.887-26.865c0,0,5.956,18.18,9.01,27.224
		l28.16-0.155L133.79,88.25l8.761,26.523c0,0-15.528-11.176-23.279-16.774L0,191.488l119.147-74.593l50.437,36.293
		c0,0-14.419-43.096-19.148-57.444L200.496,58.822z"/>
</g>
<g>
	<path fill-rule="evenodd" clip-rule="evenodd" fill="#FFFFFF" d="M108.258,97.495L37.546,66.206c0,0,34.62,20.781,51.814,31.289
		l-23.404,32.289L108.258,97.495z"/>
</g>
<path display="none" fill-rule="evenodd" clip-rule="evenodd" fill="#1678D4" d="M357.883,33.436c4.479,0,8.956,0,13.435,0
	c0,31.347,0,62.695,0,94.042c-4.52,0-9.039,0-13.559,0c0-31.223,0-62.447,0-93.668C357.748,33.632,357.738,33.457,357.883,33.436z"
	/>
<path display="none" fill-rule="evenodd" clip-rule="evenodd" fill="#1678D4" d="M277.152,46.994c0.083,0,0.166,0,0.249,0
	c0,5.266,0,10.532,0,15.798c4.893,0.29,10.324,0.042,15.424,0.125c0,3.358,0,6.717,0,10.076c-4.893,0.29-10.324,0.042-15.424,0.125
	c0,6.229,0,13.515,0,21.147c-0.001,8.802-1.33,19.542,4.105,22.515c2.338,1.279,7.142,1.056,9.951,0
	c0.477,3.213,0.34,7.04,0.622,10.449c-3.464,1.26-7.691,1.78-12.439,1.492c-10.924-0.662-15.405-8.723-15.673-19.902
	c-0.265-11.03,0.199-24.307,0-35.577c-2.82-0.29-6.178-0.042-9.205-0.125c0-3.4,0-6.8,0-10.2c3.027,0,6.054,0,9.081,0
	c0.289-3.691,0.042-7.919,0.125-11.817C268.421,49.791,272.763,48.369,277.152,46.994z"/>
<path display="none" fill-rule="evenodd" clip-rule="evenodd" fill="#1678D4" d="M348.678,98.245c-13.683,0-27.366,0-41.05,0
	c0.394,12.388,6.964,19.965,19.53,20.151c6.12,0.091,11.753-1.194,16.42-3.11c0.616,3.24,1.479,6.233,2.114,9.454
	c-0.759,0.727-2.073,1.104-3.234,1.493c-7.662,2.563-20.5,3.56-28.734,0.746c-9.144-3.124-15.338-10.171-17.789-19.778
	c-4.451-17.451,1.811-34.338,12.44-41.299c3.03-1.985,5.99-3.289,10.2-3.98c1.389-0.228,3.101-0.479,4.603-0.498
	c10.241-0.13,16.691,4.438,20.773,10.822C348.048,78.653,349.827,88.011,348.678,98.245z M324.173,71.251
	c-0.98-0.076-2.756,0-3.483,0.125c-8.118,1.394-11.777,8.45-12.937,17.166c9.453,0,18.907,0,28.361,0
	C336.057,79.341,332.425,71.887,324.173,71.251z"/>
<path display="none" fill-rule="evenodd" clip-rule="evenodd" fill="#1678D4" d="M428.289,65.404
	c-0.686,2.714-1.645,5.155-2.363,7.837c-1.369-0.403-2.109-1.065-3.234-1.493c-7.158-2.721-16.22-1.986-21.52,1.244
	c-5.314,3.239-8.937,9.134-10.324,15.922c-3.352,16.389,5.105,30.804,19.405,31.845c5.147,0.375,9.083-0.572,12.688-1.866
	c1.131-0.405,2.211-0.847,3.358-1.119c0.455,2.489,1.119,4.769,1.617,7.215c-0.859,0.819-2.135,1.107-3.233,1.493
	c-3.349,1.172-7.411,2.078-11.693,2.238c-6.035,0.227-11.568-0.751-15.923-2.736c-8.26-3.767-13.94-11.325-15.922-21.271
	c-1.154-5.795-1.111-11.658,0-16.917c1.087-5.144,3.032-9.277,5.598-12.937c5.17-7.375,12.922-12.017,24.506-12.688
	C417.948,61.782,423.522,63.24,428.289,65.404z"/>
<path display="none" fill-rule="evenodd" clip-rule="evenodd" fill="#1678D4" d="M461.254,62.17
	c14.833-0.877,24.247,7.88,28.237,18.908c1.479,4.086,2.239,8.61,2.239,13.434c-0.001,10.497-2.517,18.142-7.34,24.008
	c-4.608,5.605-12.024,9.965-21.022,10.325c-10.053,0.401-17.665-3.522-22.515-8.957c-4.967-5.564-7.85-13.275-8.086-23.261
	c-0.235-9.971,2.929-18.43,7.339-24.008c3.263-4.126,8.035-7.723,14.057-9.454C456.348,62.538,458.901,62.309,461.254,62.17z
	 M452.049,72.992c-2.536,1.949-4.472,4.317-5.847,6.966c-2.812,5.419-4.242,14.256-2.985,21.645
	c1.195,7.025,4.528,12.999,9.205,16.42c5.396,3.947,13.41,4.35,19.405,0.124c6.022-4.244,9.848-12.188,9.951-22.018
	c0.051-4.798-0.709-9.308-2.363-13.559c-2.685-6.9-8.17-13.073-17.539-12.813C457.938,69.868,454.581,71.046,452.049,72.992z"/>
<path display="none" fill-rule="evenodd" clip-rule="evenodd" fill="#1678D4" d="M588.508,86.676c0,13.6,0,27.201,0,40.801
	c-3.192,0-6.386,0-9.578,0c0-11.692,0-23.757,0-35.701c0-11.341-2.945-21.713-14.181-21.645c-3.426,0.021-6.109,1.391-8.086,2.861
	c-3.014,2.242-5.029,5.272-6.095,9.205c-1.092,4.026-0.746,9.054-0.747,14.554c0,10.104,0.001,21.17,0,30.726
	c-3.192,0-6.385,0-9.578,0c0-8.269,0-17.448,0-26.994c0-9.237,0.614-18.683-2.736-24.381c-2.002-3.404-5.634-6.016-10.822-5.971
	c-3.351,0.029-6.121,1.434-8.086,2.861c-2.962,2.152-5.27,5.334-6.468,8.957c-1.351,4.08-0.995,9.128-0.995,14.554
	c-0.001,10.146,0,21.269,0,30.975c-3.193,0-6.386,0-9.579,0c-0.174-21.305,0.435-43.393-0.497-63.938c2.819,0,5.639,0,8.459,0
	c0.338,3.269,0.486,6.729,0.622,10.2c0.547,0.09,0.779-0.562,0.995-0.871c0.273-0.393,0.494-0.876,0.746-1.244
	c3.666-5.348,9.423-9.709,18.286-9.578c9.38,0.139,14.47,5.662,17.29,12.813c0.714-0.673,1.218-1.581,1.741-2.364
	c3.853-5.761,9.842-10.587,19.157-10.449c6.71,0.099,11.749,3.198,14.803,7.339C586.397,73.776,588.183,79.885,588.508,86.676z"/>
<path display="none" fill="#1678D4" d="M259.632,115.09c-1.672-1.615-2.507-4.116-2.507-7.505V72.185h18.587l1.775-10.668
	l-20.362,0.024V46.829l-14.001,0.084v14.76l-2.701,0.021l-11.792,10.23l14.568,0.26v35.639c0,14.034,6.569,21.05,19.709,21.05
	c2.597,0,5.104-0.229,7.523-0.688s6.556-1.694,8.091-2.373l-2.762-9.729c-3.384,1.076-6.166,1.429-9.548,1.429
	C263.498,117.512,261.304,116.705,259.632,115.09z"/>
<path display="none" fill="#1678D4" d="M310.802,60.344c-9.284,0-16.581,3.09-21.892,9.269c-5.31,6.18-7.966,14.671-7.966,25.474
	c0,10.524,2.862,18.786,8.585,24.786s13.66,9,23.81,9c4.445,0,8.399-0.339,11.86-1.017s6.884-1.833,12.006-5.052v-11.422
	c-5.555,3.299-9.124,4.524-12.448,5.261c-3.324,0.739-6.914,1.107-10.769,1.107c-5.862,0-10.405-1.725-13.631-5.173
	c-3.227-3.448-4.938-8.381-5.134-14.801h43.489v-7.594c0-9.288-2.499-16.584-7.494-21.886
	C326.223,62.996,319.416,60.344,310.802,60.344z M295.46,87.612c0.511-5.421,2.095-9.547,4.75-12.378
	c2.655-2.83,6.186-4.246,10.592-4.246c4.405,0,7.867,1.405,10.386,4.216c2.517,2.811,3.815,6.947,3.894,12.408H295.46z"/>
<rect x="349.229" y="34.63" display="none" fill="#1678D4" width="13.867" height="93.047"/>
<path display="none" fill="#1678D4" d="M415.662,115.041c-3.852,1.406-7.853,2.113-12.006,2.113c-5.429,0-9.549-1.864-12.361-5.592
	c-2.813-3.728-4.22-9.299-4.22-16.713c0-15.189,5.645-22.784,16.936-22.784c3.117,0,6.919,0.774,11.403,2.317
	c1.552-4.004,3.601-7.063,6.261-10.621c-5.244-2.278-11.093-3.416-17.546-3.416c-10.149,0-17.909,2.99-23.279,8.97
	c-5.369,5.98-8.054,14.531-8.054,25.653c0,10.924,2.566,19.307,7.7,25.146s12.637,8.76,22.511,8.76
	c4.013,0,7.425-0.319,10.238-0.956c2.813-0.638,5.458-1.694,7.937-3.17v-0.078c-2.556-3.686-3.134-4.465-4.383-7.057
	C416.395,116.773,416.016,115.916,415.662,115.041z"/>
<path display="none" fill="#1678D4" d="M453.017,60.344c-9.874,0-17.525,3.01-22.953,9.029c-5.43,6.02-8.144,14.392-8.144,25.116
	c0,6.898,1.259,12.957,3.776,18.179c2.517,5.223,6.116,9.229,10.799,12.02c4.681,2.791,10.069,4.186,16.168,4.186
	c9.755,0,17.367-3.029,22.836-9.09c5.468-6.059,8.202-14.49,8.202-25.294c0-10.444-2.754-18.747-8.261-24.906
	C469.932,63.423,462.459,60.344,453.017,60.344z M453.105,117.392c-11.133,0-16.906-7.633-16.906-22.903
	c0-7.296,1.309-12.896,3.925-16.803s6.834-5.861,12.656-5.861c11.094,0,16.641,7.556,16.641,22.664
	C469.421,109.759,464.12,117.392,453.105,117.392z"/>
<path display="none" fill="#1678D4" d="M582.369,66.324c-3.561-3.987-9.235-5.98-17.024-5.98c-4.524,0-8.536,0.917-12.037,2.75
	c-3.502,1.834-6.217,4.386-8.144,7.654h-0.943c-3.267-6.937-9.914-10.405-19.945-10.405c-4.131,0-7.918,0.858-11.358,2.571
	c-3.443,1.714-6.069,4.146-7.878,7.296h-0.708l-0.043-8.425l-12.762-0.246v66.137h13.866V94.729c0-8.211,1.249-14.083,3.747-17.611
	c2.498-3.528,6.422-5.292,11.772-5.292c4.013,0,6.963,1.247,8.851,3.738c1.889,2.492,2.833,6.269,2.833,11.331v40.783h13.926V92.636
	c0-7.057,1.248-12.289,3.747-15.697c2.497-3.409,6.441-5.113,11.831-5.113c4.012,0,6.972,1.247,8.881,3.738
	c1.907,2.492,2.861,6.269,3.068,11.331v40.783h13.66V84.563C587.709,76.391,585.928,70.311,582.369,66.324z"/>
<path fill="#FFFFFF" d="M248.827,119.866c1.652,0,3.248-0.123,4.788-0.371c1.539-0.247,2.761-0.503,3.661-0.771v7.249
	c-1.013,0.496-2.506,0.903-4.478,1.228c-1.971,0.324-3.746,0.485-5.323,0.485c-11.941,0-17.913-6.374-17.913-19.123V71.345h-8.844
	v-0.784l8.853-6.795l0.41-14.283l8.932,1.571V63.98h17.913v7.364h-17.913v36.819c0,3.768,0.882,6.66,2.647,8.678
	C243.325,118.858,245.748,119.866,248.827,119.866z"/>
<path fill="#FFFFFF" d="M289.882,127.686c-9.125,0-16.327-2.815-21.603-8.448c-5.275-5.632-7.914-13.451-7.914-23.461
	c0-10.085,2.45-18.096,7.351-24.033c4.9-5.937,11.482-8.905,19.743-8.905c7.735,0,13.856,2.579,18.362,7.735
	c4.507,5.158,6.76,11.959,6.76,20.408v5.995h-42.527c0.187,7.345,2.018,12.92,5.492,16.725c3.473,3.806,8.365,5.709,14.673,5.709
	c6.646,0,13.219-1.408,19.715-4.225v8.449c-3.305,1.445-6.431,2.482-9.378,3.11C297.608,127.373,294.051,127.686,289.882,127.686z
	 M287.347,70.773c-4.957,0-8.909,1.637-11.856,4.91c-2.949,3.273-4.686,7.802-5.21,13.586h32.275c0-5.974-1.314-10.551-3.942-13.729
	C295.984,72.363,292.229,70.773,287.347,70.773z"/>
<path fill="#FFFFFF" d="M329.91,126.544h-9.351V37.722h9.351V126.544z"/>
<path fill="#FFFFFF" d="M366.055,127.686c-8.938,0-15.855-2.787-20.756-8.362s-7.352-13.462-7.352-23.661
	c0-10.466,2.487-18.552,7.464-24.261c4.976-5.708,12.063-8.563,21.265-8.563c2.967,0,5.934,0.324,8.899,0.97
	c2.966,0.648,5.296,1.409,6.985,2.284l-2.873,8.049c-2.065-0.836-4.319-1.532-6.76-2.083c-2.441-0.551-4.6-0.828-6.479-0.828
	c-12.542,0-18.813,8.106-18.813,24.318c0,7.688,1.529,13.586,4.59,17.696c3.061,4.109,7.596,6.165,13.604,6.165
	c5.145,0,10.422-1.123,15.828-3.369v8.393C377.527,126.602,372.326,127.686,366.055,127.686z"/>
<path fill="#FFFFFF" d="M442.017,95.206c0,10.2-2.534,18.163-7.604,23.889c-5.07,5.728-12.073,8.591-21.011,8.591
	c-5.521,0-10.421-1.313-14.702-3.938c-4.28-2.625-7.585-6.394-9.913-11.303c-2.329-4.909-3.492-10.655-3.492-17.239
	c0-10.199,2.516-18.144,7.548-23.833c5.032-5.689,12.016-8.534,20.954-8.534c8.637,0,15.499,2.912,20.588,8.734
	C439.472,77.396,442.017,85.273,442.017,95.206z M394.981,95.206c0,7.991,1.578,14.081,4.732,18.266
	c3.154,4.187,7.792,6.279,13.913,6.279c6.12,0,10.769-2.083,13.941-6.251c3.173-4.167,4.761-10.265,4.761-18.294
	c0-7.954-1.588-13.995-4.761-18.125c-3.173-4.129-7.857-6.194-14.054-6.194c-6.122,0-10.741,2.037-13.856,6.108
	C396.54,81.068,394.981,87.138,394.981,95.206z"/>
<path fill="#FFFFFF" d="M527.404,126.544V85.844c0-4.985-1.051-8.724-3.153-11.217c-2.104-2.492-5.371-3.739-9.802-3.739
	c-5.821,0-10.121,1.694-12.899,5.081c-2.779,3.388-4.168,8.601-4.168,15.641v34.935h-9.351V85.844c0-4.985-1.052-8.724-3.154-11.217
	c-2.104-2.492-5.389-3.739-9.858-3.739c-5.857,0-10.148,1.78-12.871,5.337c-2.723,3.559-4.083,9.39-4.083,17.497v32.823h-9.352
	V63.98h7.605l1.52,8.563h0.452c1.764-3.044,4.253-5.423,7.463-7.136c3.212-1.712,6.807-2.569,10.788-2.569
	c9.649,0,15.959,3.54,18.926,10.618h0.45c1.84-3.272,4.507-5.86,7.999-7.763c3.492-1.902,7.473-2.854,11.941-2.854
	c6.985,0,12.214,1.818,15.688,5.452c3.473,3.635,5.211,9.448,5.211,17.439v40.814H527.404z"/>
</svg>
